<?xml version="1.0" standalone="no"?>
<!DOCTYPE svg PUBLIC "-//W3C//DTD SVG 20010904//EN"
 "http://www.w3.org/TR/2001/REC-SVG-20010904/DTD/svg10.dtd">
<svg version="1.0" xmlns="http://www.w3.org/2000/svg"
 width="260.000000pt" height="260.000000pt" viewBox="0 0 260.000000 260.000000"
 preserveAspectRatio="xMidYMid meet">
<metadata>
Created by potrace 1.14, written by Peter Selinger 2001-2017
</metadata>
<g transform="translate(0.000000,260.000000) scale(0.100000,-0.100000)"
fill="#000000" stroke="none">
<path d="M620 1739 c0 -5 5 -7 10 -4 6 3 10 8 10 11 0 2 -4 4 -10 4 -5 0 -10
-5 -10 -11z"/>
<path d="M650 1735 c0 -8 -7 -15 -15 -15 -8 0 -15 -1 -16 -2 0 -2 -6 -41 -14
-88 -7 -47 -12 -67 -12 -45 2 43 -17 75 -43 74 -10 0 -9 -3 5 -9 15 -7 16 -9
4 -9 -9 -1 -28 -10 -43 -22 -14 -11 -26 -16 -26 -10 0 6 6 11 13 12 6 0 1 5
-12 10 -24 10 -65 3 -57 -9 2 -4 -2 -16 -10 -27 -8 -10 -14 -13 -14 -7 0 7 -9
12 -20 12 -11 0 -20 -7 -20 -15 0 -8 -4 -15 -9 -15 -4 0 -13 -24 -19 -52 l-11
-53 4 50 c3 35 2 44 -4 30 -9 -20 -10 -20 -10 1 -1 17 -6 20 -26 16 -19 -3
-27 -14 -35 -43 -12 -44 -24 -53 -14 -11 4 19 3 23 -4 13 -5 -7 -15 -11 -20
-7 -6 4 -16 -3 -22 -14 -6 -11 -16 -19 -22 -17 -6 1 -13 -4 -16 -12 -2 -8 0
-11 6 -7 6 4 8 -2 5 -14 -3 -11 -9 -23 -14 -26 -5 -3 -6 2 -3 10 10 25 -33 11
-61 -21 -37 -41 -57 -81 -52 -106 4 -18 4 -18 6 5 0 15 5 29 10 32 4 3 6 -6 3
-20 -5 -26 15 -74 30 -74 5 0 6 6 3 13 -4 6 0 4 8 -6 14 -17 15 -16 20 3 5 18
8 20 26 9 16 -11 23 -10 38 2 25 22 44 32 41 22 -2 -4 2 -10 7 -11 6 -2 18 -8
27 -13 14 -8 18 -6 19 8 0 10 5 3 12 -16 7 -19 19 -36 27 -39 13 -3 13 -2 0 7
-13 9 -13 11 2 11 9 0 21 7 26 16 8 15 10 15 15 0 4 -10 18 -16 36 -16 25 0
30 5 34 28 l4 27 2 -27 c1 -23 6 -28 26 -28 14 0 25 6 25 13 0 8 3 7 9 -2 8
-12 11 -9 16 12 10 37 25 34 25 -5 0 -18 4 -39 9 -46 4 -7 7 12 5 45 -1 32 0
45 2 28 8 -55 26 -115 35 -115 5 0 14 9 21 20 19 30 28 24 28 -17 0 -21 4 -43
8 -50 4 -6 6 30 6 80 l-2 92 7 -85 c10 -106 16 -120 52 -120 24 0 29 5 35 35
3 19 10 35 15 35 5 0 6 37 4 83 -5 94 1 85 10 -16 5 -51 11 -70 23 -73 10 -3
25 -10 35 -15 13 -7 17 -5 17 10 0 11 5 23 10 26 6 3 10 16 10 28 0 18 -2 20
-11 7 -9 -12 -10 -12 -5 3 3 10 6 31 7 45 0 20 4 16 13 -18 7 -27 17 -44 25
-42 7 1 10 -1 7 -6 -3 -5 3 -16 14 -24 17 -15 20 -15 33 0 8 9 20 37 26 62
l11 45 -4 -43 c-3 -27 0 -40 6 -36 6 4 8 29 5 63 -4 43 -3 50 5 31 5 -14 7
-52 3 -86 -6 -57 -5 -64 20 -88 30 -30 40 -33 30 -8 -5 13 -3 14 5 5 8 -7 22
-8 41 -3 27 8 28 7 34 -38 15 -118 18 -129 25 -102 6 24 7 24 11 -7 4 -21 2
-30 -5 -27 -6 3 -2 -2 8 -10 23 -19 32 -20 41 -6 4 6 -1 7 -12 4 -15 -6 -15
-4 2 9 11 8 22 13 25 11 2 -3 5 -39 6 -82 1 -42 3 -90 3 -105 1 -16 6 -27 14
-26 6 1 20 -1 30 -6 32 -14 42 11 48 123 l5 107 2 -103 c1 -57 6 -101 10 -98
5 3 8 41 7 85 -1 79 -1 79 24 78 14 -1 26 3 26 10 0 6 3 15 8 19 4 4 8 21 8
38 l2 31 6 -35 c7 -31 8 -27 15 35 4 39 12 84 17 101 5 17 7 38 3 47 -9 26 5
20 16 -5 7 -17 9 -11 5 27 l-4 50 10 -40 c5 -22 8 -48 5 -58 -3 -11 -2 -16 1
-13 4 3 12 -3 20 -14 18 -26 33 -26 33 1 0 11 5 17 10 14 6 -3 10 -1 10 5 0 6
4 9 9 5 16 -9 23 14 23 73 l0 57 11 -45 c11 -41 15 -45 44 -45 17 -1 29 3 26
8 -3 4 -2 20 2 35 6 26 7 27 22 7 14 -19 15 -17 10 25 -3 25 -9 55 -12 65 -6
16 -5 17 4 5 6 -8 16 -48 22 -88 12 -77 22 -88 62 -78 20 5 22 11 20 48 -3 53
3 39 12 -24 4 -30 11 -48 20 -48 8 0 11 -7 8 -20 -4 -16 0 -20 18 -20 56 0 66
9 73 61 7 53 12 58 32 32 19 -26 32 -7 45 63 12 60 33 126 24 74 -13 -81 -14
-110 -5 -110 5 0 10 18 10 40 0 47 16 53 25 10 4 -16 11 -30 16 -30 6 0 8 4 5
8 -2 4 7 8 22 7 19 0 27 6 32 25 l7 25 4 -25 c4 -28 41 -39 64 -20 9 7 15 8
20 1 10 -17 57 -8 81 16 27 27 56 30 74 8 9 -11 22 -14 42 -10 16 4 35 2 42
-5 22 -17 70 35 61 67 -3 13 -10 21 -15 18 -5 -3 -7 0 -5 7 8 21 -47 88 -67
82 -12 -4 -19 2 -24 20 -3 14 -15 28 -25 31 -10 4 -19 13 -19 21 0 11 -6 13
-20 9 -15 -5 -20 -2 -20 10 0 11 -5 15 -15 11 -9 -3 -15 0 -15 8 0 8 -11 16
-25 18 -20 4 -25 1 -26 -16 0 -21 -1 -21 -9 -1 -6 14 -8 2 -5 -35 l4 -55 -13
50 c-22 85 -28 96 -45 92 -9 -2 -15 -9 -13 -16 1 -7 -2 -10 -8 -6 -6 3 -8 10
-5 15 3 4 -1 10 -9 13 -12 5 -12 0 -5 -26 5 -18 9 -39 8 -47 0 -8 -7 7 -14 34
-8 28 -12 53 -9 58 3 4 -1 8 -8 9 -7 0 -23 2 -36 3 -17 2 -21 -1 -17 -12 5
-13 3 -13 -12 -1 -10 8 -22 20 -26 27 -4 6 -13 12 -20 12 -8 0 -8 -3 1 -9 10
-6 9 -10 -7 -14 -16 -4 -21 -14 -22 -39 -1 -22 -6 -8 -16 42 -7 41 -14 83 -14
94 0 18 0 18 -15 0 -10 -14 -14 -15 -12 -4 2 10 -6 15 -24 16 -26 1 -38 -10
-20 -18 5 -1 3 -16 -5 -33 l-14 -30 6 30 c4 22 3 26 -5 15 -5 -8 -10 -25 -10
-37 0 -12 -6 -20 -12 -19 -29 6 -47 19 -42 28 4 6 1 9 -7 6 -8 -3 -17 -20 -20
-39 -5 -28 -7 -30 -9 -9 -2 19 -5 15 -13 -18 -9 -39 -11 -41 -21 -21 -21 42
-42 46 -75 15 -23 -22 -29 -35 -25 -53 4 -12 2 -23 -4 -23 -5 0 -12 9 -15 20
-3 11 -9 20 -14 19 -25 -4 -53 2 -48 11 4 6 11 7 17 4 7 -4 8 -2 4 4 -20 33
-62 -25 -72 -99 l-8 -54 -8 45 c-5 25 -12 52 -15 60 -4 8 -7 20 -7 25 -1 14
-41 13 -41 -2 0 -6 -3 -15 -7 -19 -5 -4 -9 -21 -9 -38 -2 -43 -17 54 -18 117
-1 27 -5 46 -10 43 -5 -4 -7 4 -3 16 3 13 1 19 -5 15 -6 -4 -15 5 -21 18 -22
48 -49 24 -53 -45 -1 -23 -2 -23 -8 5 -4 17 -6 -37 -5 -120 l3 -150 -10 145
c-8 129 -20 191 -38 190 -3 0 -14 -11 -23 -24 -13 -18 -18 -56 -24 -172 -4
-82 -11 -158 -15 -169 -6 -14 -7 -10 -4 15 2 19 6 98 9 175 l4 140 -12 -95
-11 -95 -15 33 c-8 18 -21 31 -29 30 -8 -2 -13 -7 -12 -12 2 -5 -2 -12 -8 -15
-5 -4 -14 -29 -19 -56 -8 -38 -10 -43 -11 -19 0 17 -4 34 -8 38 -5 4 -8 11 -9
14 -2 21 -24 60 -36 64 -7 2 -26 1 -43 -3 -29 -6 -29 -7 10 -9 30 -2 33 -4 14
-7 -24 -4 -28 -11 -42 -76 -15 -65 -15 -67 -10 -18 4 38 2 52 -6 47 -7 -5 -11
4 -11 26 0 18 -5 40 -11 48 -9 13 -10 12 -5 -2 8 -28 -3 -21 -14 7 -9 24 -40
35 -40 14 0 -5 -4 -8 -9 -5 -5 4 -7 -3 -4 -13 3 -11 0 -28 -6 -38 -9 -15 -10
-13 -5 12 4 22 3 26 -5 15 -11 -16 -14 -11 -24 35 -3 11 -3 -25 -1 -80 l3
-100 -10 100 c-10 97 -20 120 -47 110 -7 -3 -10 0 -7 5 3 5 20 7 38 5 l32 -5
-30 10 c-35 12 -55 7 -55 -15 0 -8 -4 -15 -10 -15 -5 0 -10 8 -10 18 0 9 -4
22 -8 29 -4 6 -7 -36 -6 -95 l2 -107 -8 105 c-4 58 -11 114 -15 124 -6 15 -5
17 5 11 9 -5 11 -4 6 3 -10 17 -46 15 -46 -3z m1320 -60 c0 -5 -5 -3 -10 5 -5
8 -10 20 -10 25 0 6 5 3 10 -5 5 -8 10 -19 10 -25z m-113 -72 c-3 -10 -5 -4
-5 12 0 17 2 24 5 18 2 -7 2 -21 0 -30z m-470 5 c-3 -8 -6 -5 -6 6 -1 11 2 17
5 13 3 -3 4 -12 1 -19z m366 -83 c4 -23 3 -34 -2 -25 -5 8 -11 38 -14 65 -7
56 6 25 16 -40z m-1316 53 c-3 -8 -6 -5 -6 6 -1 11 2 17 5 13 3 -3 4 -12 1
-19z m70 -20 c-3 -7 -5 -2 -5 12 0 14 2 19 5 13 2 -7 2 -19 0 -25z m891 -43
l0 -30 -8 30 c-4 17 -8 41 -8 55 l0 25 8 -25 c4 -14 8 -38 8 -55z m230 -10 l0
-30 -8 30 c-4 17 -8 39 -8 50 l-1 20 9 -20 c5 -11 8 -33 8 -50z m-1321 39 c-3
-3 -12 -4 -19 -1 -8 3 -5 6 6 6 11 1 17 -2 13 -5z m1224 -60 c-5 -16 -10 -21
-10 -12 -1 18 10 51 15 45 2 -1 -1 -16 -5 -33z m-354 -6 c-3 -7 -5 -2 -5 12 0
14 2 19 5 13 2 -7 2 -19 0 -25z m460 -40 c-3 -7 -5 -2 -5 12 0 14 2 19 5 13 2
-7 2 -19 0 -25z m-560 -20 c-3 -7 -5 -2 -5 12 0 14 2 19 5 13 2 -7 2 -19 0
-25z m446 2 c3 -11 1 -20 -4 -20 -5 0 -9 9 -9 20 0 11 2 20 4 20 2 0 6 -9 9
-20z m-122 -37 c-9 -16 -10 -15 -11 8 0 14 3 29 8 33 12 12 14 -22 3 -41z
m-334 -5 c-3 -8 -6 -5 -6 6 -1 11 2 17 5 13 3 -3 4 -12 1 -19z m776 -162 c4
-22 2 -35 -2 -30 -5 5 -11 38 -14 74 -6 66 4 40 16 -44z m88 -71 l-11 -40 5
49 c3 27 6 72 7 100 l2 51 3 -60 c2 -33 -1 -78 -6 -100z m-1031 115 c0 -11 -2
-20 -4 -20 -2 0 -6 9 -9 20 -3 11 -1 20 4 20 5 0 9 -9 9 -20z m577 -12 c-3 -7
-5 -2 -5 12 0 14 2 19 5 13 2 -7 2 -19 0 -25z m-371 -60 c-4 -36 -3 -45 3 -28
8 23 12 17 11 -17 0 -5 -12 -11 -26 -15 -19 -5 -23 -4 -16 5 6 7 13 33 17 60
10 64 18 60 11 -5z m331 -150 c-2 -13 -4 -3 -4 22 0 25 2 35 4 23 2 -13 2 -33
0 -45z m-200 -60 c-2 -13 -4 -3 -4 22 0 25 2 35 4 23 2 -13 2 -33 0 -45z"/>
<path d="M961 1564 c0 -11 3 -14 6 -6 3 7 2 16 -1 19 -3 4 -6 -2 -5 -13z"/>
<path d="M1082 1540 c0 -14 2 -19 5 -12 2 6 2 18 0 25 -3 6 -5 1 -5 -13z"/>
<path d="M1501 1534 c0 -11 3 -14 6 -6 3 7 2 16 -1 19 -3 4 -6 -2 -5 -13z"/>
<path d="M365 1221 c3 -5 19 -9 36 -9 20 1 26 4 17 9 -18 12 -61 11 -53 0z"/>
<path d="M448 1223 c6 -2 18 -2 25 0 6 3 1 5 -13 5 -14 0 -19 -2 -12 -5z"/>
<path d="M2100 1221 c0 -5 14 -9 31 -9 20 1 26 4 17 9 -18 12 -48 11 -48 0z"/>
<path d="M2170 1220 c0 -5 6 -10 14 -10 8 0 18 5 21 10 3 6 -3 10 -14 10 -12
0 -21 -4 -21 -10z"/>
<path d="M1721 1184 c0 -11 3 -14 6 -6 3 7 2 16 -1 19 -3 4 -6 -2 -5 -13z"/>
<path d="M798 1133 c6 -2 18 -2 25 0 6 3 1 5 -13 5 -14 0 -19 -2 -12 -5z"/>
<path d="M1758 1133 c6 -2 18 -2 25 0 6 3 1 5 -13 5 -14 0 -19 -2 -12 -5z"/>
<path d="M1330 738 c0 -22 -37 -33 -58 -17 -16 12 -16 11 -1 -4 12 -14 23 -16
53 -10 35 8 36 9 22 28 -13 17 -15 18 -16 3z"/>
</g>
</svg>
